# xmcd
#
# Track frame offsets: 
#        150
#        23463
#        49244
#        64851
#        87435
#        109445
#        121266
#        135852
#        160093
#        177504
#        195396
#        217683
#        245014
#        262726
#        285808
#        311272
#
# Disc length: 4440 seconds
#
# Revision: 1
# Processed by: cddbd v1.5.2PL0 Copyright (c) Steve Scherf et al.
# Submitted via: ExactAudioCopy v0.99pb4
#
DISCID=cb115610
DTITLE=Various Artist - Greg Delon - Bar Live After Music
DYEAR=2004
DGENRE=Techno, Electro, Tech House
TTITLE0=Superpitcher - Hysteria
TTITLE1=DJ T - Freemind
TTITLE2=Le Dust Sucker - Mandate My Ass
TTITLE3=Alex Kid - Come With Me (Tiga's Aciddeathrave Remix)
TTITLE4=M.A.N.D.Y - No Stoppin'
TTITLE5=Delon and Dalcan - Dunufus
TTITLE6=Tiga - Burning Down (London's Burning)
TTITLE7=Jahcoozi - Fish (Team Natascha Club Mix)
TTITLE8=2raumwohnung - Ich Weib Warum (2raumwohnung Clubversion)
TTITLE9=Savas Pascalidis - Superman
TTITLE10=Laudert - Aus Der Hufte
TTITLE11=Spektrum - Kinda New (Tiefschwarz Dub)
TTITLE12=Volga Select - The Unconditional Discipline Of The Bastard Pr
TTITLE12=ince
TTITLE13=Tiefschwarz - Ghosttrack (Black Strobe Remix)
TTITLE14=Zombie Nation feat. My Robot Friend - The Cut
TTITLE15=Data
EXTD=
EXTT0=
EXTT1=
EXTT2=
EXTT3=
EXTT4=
EXTT5=
EXTT6=
EXTT7=
EXTT8=
EXTT9=
EXTT10=
EXTT11=
EXTT12=
EXTT13=
EXTT14=
EXTT15=
PLAYORDER=
